<svg xmlns="http://www.w3.org/2000/svg" xmlns:xlink="http://www.w3.org/1999/xlink" version="1.1" class="marks" width="391" height="298" viewBox="0 0 391 298"><rect width="391" height="298" fill="#0d0d0d"/><g fill="none" stroke-miterlimit="10" transform="translate(53,10)"><g class="mark-group role-frame root" role="graphics-object" aria-roledescription="group mark container"><g transform="translate(0,0)"><path class="background" aria-hidden="true" d="M0.5,0.5h333v251h-333Z" stroke="#ddd"/><g><g class="mark-group role-axis" aria-hidden="true"><g transform="translate(0.5,251.5)"><path class="background" aria-hidden="true" d="M0,0h0v0h0Z" pointer-events="none"/><g><g class="mark-rule role-axis-grid" pointer-events="none"><line transform="translate(0,-251)" x2="0" y2="251" stroke="#303030" stroke-width="1" opacity="1"/><line transform="translate(29,-251)" x2="0" y2="251" stroke="#303030" stroke-width="1" opacity="1"/><line transform="translate(59,-251)" x2="0" y2="251" stroke="#303030" stroke-width="1" opacity="1"/><line transform="translate(88,-251)" x2="0" y2="251" stroke="#303030" stroke-width="1" opacity="1"/><line transform="translate(118,-251)" x2="0" y2="251" stroke="#303030" stroke-width="1" opacity="1"/><line transform="translate(147,-251)" x2="0" y2="251" stroke="#303030" stroke-width="1" opacity="1"/><line transform="translate(176,-251)" x2="0" y2="251" stroke="#303030" stroke-width="1" opacity="1"/><line transform="translate(206,-251)" x2="0" y2="251" stroke="#303030" stroke-width="1" opacity="1"/><line transform="translate(235,-251)" x2="0" y2="251" stroke="#303030" stroke-width="1" opacity="1"/><line transform="translate(264,-251)" x2="0" y2="251" stroke="#303030" stroke-width="1" opacity="1"/><line transform="translate(294,-251)" x2="0" y2="251" stroke="#303030" stroke-width="1" opacity="1"/><line transform="translate(323,-251)" x2="0" y2="251" stroke="#303030" stroke-width="1" opacity="1"/></g></g><path class="foreground" aria-hidden="true" d="" pointer-events="none" display="none"/></g></g><g class="mark-group role-axis" aria-hidden="true"><g transform="translate(0.5,0.5)"><path class="background" aria-hidden="true" d="M0,0h0v0h0Z" pointer-events="none"/><g><g class="mark-rule role-axis-grid" pointer-events="none"><line transform="translate(0,251)" x2="333" y2="0" stroke="#404040" stroke-width="1" opacity="1"/><line transform="translate(0,223)" x2="333" y2="0" stroke="#404040" stroke-width="1" opacity="1"/><line transform="translate(0,195)" x2="333" y2="0" stroke="#404040" stroke-width="1" opacity="1"/><line transform="translate(0,167)" x2="333" y2="0" stroke="#404040" stroke-width="1" opacity="1"/><line transform="translate(0,139)" x2="333" y2="0" stroke="#404040" stroke-width="1" opacity="1"/><line transform="translate(0,112)" x2="333" y2="0" stroke="#404040" stroke-width="1" opacity="1"/><line transform="translate(0,84)" x2="333" y2="0" stroke="#404040" stroke-width="1" opacity="1"/><line transform="translate(0,56)" x2="333" y2="0" stroke="#404040" stroke-width="1" opacity="1"/><line transform="translate(0,28)" x2="333" y2="0" stroke="#404040" stroke-width="1" opacity="1"/><line transform="translate(0,0)" x2="333" y2="0" stroke="#404040" stroke-width="1" opacity="1"/></g></g><path class="foreground" aria-hidden="true" d="" pointer-events="none" display="none"/></g></g><g class="mark-group role-axis" role="graphics-symbol" aria-roledescription="axis" aria-label="X-axis titled 'date' for a time scale with values from Saturday, 24 July 2021, 3:00:00 AM to Sunday, 25 July 2021, 1:00:00 PM"><g transform="translate(0.5,251.5)"><path class="background" aria-hidden="true" d="M0,0h0v0h0Z" pointer-events="none"/><g><g class="mark-rule role-axis-tick" pointer-events="none"><line transform="translate(0,0)" x2="0" y2="5" stroke="#888" stroke-width="1" opacity="1"/><line transform="translate(29,0)" x2="0" y2="5" stroke="#888" stroke-width="1" opacity="1"/><line transform="translate(59,0)" x2="0" y2="5" stroke="#888" stroke-width="1" opacity="1"/><line transform="translate(88,0)" x2="0" y2="5" stroke="#888" stroke-width="1" opacity="1"/><line transform="translate(118,0)" x2="0" y2="5" stroke="#888" stroke-width="1" opacity="1"/><line transform="translate(147,0)" x2="0" y2="5" stroke="#888" stroke-width="1" opacity="1"/><line transform="translate(176,0)" x2="0" y2="5" stroke="#888" stroke-width="1" opacity="1"/><line transform="translate(206,0)" x2="0" y2="5" stroke="#888" stroke-width="1" opacity="1"/><line transform="translate(235,0)" x2="0" y2="5" stroke="#888" stroke-width="1" opacity="1"/><line transform="translate(264,0)" x2="0" y2="5" stroke="#888" stroke-width="1" opacity="1"/><line transform="translate(294,0)" x2="0" y2="5" stroke="#888" stroke-width="1" opacity="1"/><line transform="translate(323,0)" x2="0" y2="5" stroke="#888" stroke-width="1" opacity="1"/></g><g class="mark-text role-axis-label" pointer-events="none"><text text-anchor="start" transform="translate(0,15)" font-family="sans-serif" font-size="10px" fill="#3098c5" opacity="1">03 AM</text><text text-anchor="middle" transform="translate(29.38235294117647,15)" font-family="sans-serif" font-size="10px" fill="#3098c5" opacity="0">06 AM</text><text text-anchor="middle" transform="translate(58.76470588235294,15)" font-family="sans-serif" font-size="10px" fill="#3098c5" opacity="1">09 AM</text><text text-anchor="middle" transform="translate(88.1470588235294,15)" font-family="sans-serif" font-size="10px" fill="#3098c5" opacity="0">12 PM</text><text text-anchor="middle" transform="translate(117.52941176470588,15)" font-family="sans-serif" font-size="10px" fill="#3098c5" opacity="1">03 PM</text><text text-anchor="middle" transform="translate(146.91176470588235,15)" font-family="sans-serif" font-size="10px" fill="#3098c5" opacity="0">06 PM</text><text text-anchor="middle" transform="translate(176.2941176470588,15)" font-family="sans-serif" font-size="10px" fill="#3098c5" opacity="1">09 PM</text><text text-anchor="middle" transform="translate(205.6764705882353,15)" font-family="sans-serif" font-size="10px" fill="#3098c5" opacity="0">Jul 25</text><text text-anchor="middle" transform="translate(235.05882352941177,15)" font-family="sans-serif" font-size="10px" fill="#3098c5" opacity="1">03 AM</text><text text-anchor="middle" transform="translate(264.44117647058823,15)" font-family="sans-serif" font-size="10px" fill="#3098c5" opacity="0">06 AM</text><text text-anchor="middle" transform="translate(293.8235294117647,15)" font-family="sans-serif" font-size="10px" fill="#3098c5" opacity="1">09 AM</text><text text-anchor="middle" transform="translate(323.20588235294116,15)" font-family="sans-serif" font-size="10px" fill="#3098c5" opacity="0">12 PM</text></g><g class="mark-rule role-axis-domain" pointer-events="none"><line transform="translate(0,0)" x2="333" y2="0" stroke="#bfbfbf" stroke-width="1" opacity="1"/></g><g class="mark-text role-axis-title" pointer-events="none"><text text-anchor="middle" transform="translate(166.5,30)" font-family="sans-serif" font-size="11px" font-weight="bold" fill="#3ea8cc" opacity="1">date</text></g></g><path class="foreground" aria-hidden="true" d="" pointer-events="none" display="none"/></g></g><g class="mark-group role-axis" role="graphics-symbol" aria-roledescription="axis" aria-label="Y-axis titled 'binancecoin price' for a linear scale with values from 254 to 258"><g transform="translate(0.5,0.5)"><path class="background" aria-hidden="true" d="M0,0h0v0h0Z" pointer-events="none"/><g><g class="mark-rule role-axis-tick" pointer-events="none"><line transform="translate(0,251)" x2="-5" y2="0" stroke="#888" stroke-width="1" opacity="1"/><line transform="translate(0,223)" x2="-5" y2="0" stroke="#888" stroke-width="1" opacity="1"/><line transform="translate(0,195)" x2="-5" y2="0" stroke="#888" stroke-width="1" opacity="1"/><line transform="translate(0,167)" x2="-5" y2="0" stroke="#888" stroke-width="1" opacity="1"/><line transform="translate(0,139)" x2="-5" y2="0" stroke="#888" stroke-width="1" opacity="1"/><line transform="translate(0,112)" x2="-5" y2="0" stroke="#888" stroke-width="1" opacity="1"/><line transform="translate(0,84)" x2="-5" y2="0" stroke="#888" stroke-width="1" opacity="1"/><line transform="translate(0,56)" x2="-5" y2="0" stroke="#888" stroke-width="1" opacity="1"/><line transform="translate(0,28)" x2="-5" y2="0" stroke="#888" stroke-width="1" opacity="1"/><line transform="translate(0,0)" x2="-5" y2="0" stroke="#888" stroke-width="1" opacity="1"/></g><g class="mark-text role-axis-label" pointer-events="none"><text text-anchor="end" transform="translate(-7,254)" font-family="sans-serif" font-size="10px" fill="#3098c5" opacity="1">253.5</text><text text-anchor="end" transform="translate(-7,226.1111111111111)" font-family="sans-serif" font-size="10px" fill="#3098c5" opacity="1">254.0</text><text text-anchor="end" transform="translate(-7,198.22222222222223)" font-family="sans-serif" font-size="10px" fill="#3098c5" opacity="1">254.5</text><text text-anchor="end" transform="translate(-7,170.33333333333334)" font-family="sans-serif" font-size="10px" fill="#3098c5" opacity="1">255.0</text><text text-anchor="end" transform="translate(-7,142.44444444444446)" font-family="sans-serif" font-size="10px" fill="#3098c5" opacity="1">255.5</text><text text-anchor="end" transform="translate(-7,114.55555555555554)" font-family="sans-serif" font-size="10px" fill="#3098c5" opacity="1">256.0</text><text text-anchor="end" transform="translate(-7,86.66666666666667)" font-family="sans-serif" font-size="10px" fill="#3098c5" opacity="1">256.5</text><text text-anchor="end" transform="translate(-7,58.77777777777777)" font-family="sans-serif" font-size="10px" fill="#3098c5" opacity="1">257.0</text><text text-anchor="end" transform="translate(-7,30.8888888888889)" font-family="sans-serif" font-size="10px" fill="#3098c5" opacity="1">257.5</text><text text-anchor="end" transform="translate(-7,3)" font-family="sans-serif" font-size="10px" fill="#3098c5" opacity="1">258.0</text></g><g class="mark-rule role-axis-domain" pointer-events="none"><line transform="translate(0,251)" x2="0" y2="-251" stroke="#bfbfbf" stroke-width="1" opacity="1"/></g><g class="mark-text role-axis-title" pointer-events="none"><text text-anchor="middle" transform="translate(-36.0244140625,125.5) rotate(-90) translate(0,-2)" font-family="sans-serif" font-size="11px" font-weight="bold" fill="#3ea8cc" opacity="1">binancecoin price</text></g></g><path class="foreground" aria-hidden="true" d="" pointer-events="none" display="none"/></g></g><g class="mark-line role-mark layer_0_marks" clip-path="url(#clip1)" role="graphics-object" aria-roledescription="line mark container"><path aria-label="binancecoin price: 255.3; date: Jul 24, 2021" role="graphics-symbol" aria-roledescription="line mark" d="M0,150.59999999999934L9.794117647058824,151.15777777777822L19.58823529411765,155.06222222222226L29.38235294117647,165.10222222222268L39.1764705882353,166.2177777777772L48.970588235294116,233.70888888888874L68.55882352941177,233.70888888888874L78.3529411764706,221.99555555555497L88.1470588235294,215.86000000000024L97.94117647058823,144.4644444444446L107.73529411764706,54.66222222222324L117.52941176470588,48.52666666666693L137.11764705882354,71.95333333333447L146.91176470588235,60.79777777777639L156.7058823529412,60.79777777777639L166.5,52.43111111111097L176.2941176470588,52.43111111111097L186.08823529411765,50.75777777777916L195.88235294117646,44.06444444444559L205.6764705882353,43.50666666666513L215.47058823529412,43.50666666666513L225.26470588235296,44.622222222222845L235.05882352941177,39.044444444443805L244.8529411764706,39.044444444443805L254.6470588235294,36.81333333333474L264.44117647058823,36.81333333333474L274.2352941176471,37.928888888889276L284.02941176470586,83.1088888888894L303.61764705882354,9.48222222222312L313.4117647058824,36.25555555555428L323.20588235294116,36.25555555555428L333,36.25555555555428" stroke="#72aefd" stroke-width="2" opacity="0.9"/></g><g class="mark-symbol role-mark layer_1_marks" clip-path="url(#clip2)" role="graphics-object" aria-roledescription="symbol mark container" pointer-events="none"><path aria-label="binancecoin price: 255.3; date: Jul 24, 2021" role="graphics-symbol" aria-roledescription="point" transform="translate(0,150.59999999999934)" d="M2.7386127875258306,0A2.7386127875258306,2.7386127875258306,0,1,1,-2.7386127875258306,0A2.7386127875258306,2.7386127875258306,0,1,1,2.7386127875258306,0" fill="#110e0e" stroke="#1071c6" stroke-width="2" opacity="1"/><path aria-label="binancecoin price: 255.29; date: Jul 24, 2021" role="graphics-symbol" aria-roledescription="point" transform="translate(9.794117647058824,151.15777777777822)" d="M2.7386127875258306,0A2.7386127875258306,2.7386127875258306,0,1,1,-2.7386127875258306,0A2.7386127875258306,2.7386127875258306,0,1,1,2.7386127875258306,0" fill="#110e0e" stroke="#1071c6" stroke-width="2" opacity="1"/><path aria-label="binancecoin price: 255.22; date: Jul 24, 2021" role="graphics-symbol" aria-roledescription="point" transform="translate(19.58823529411765,155.06222222222226)" d="M2.7386127875258306,0A2.7386127875258306,2.7386127875258306,0,1,1,-2.7386127875258306,0A2.7386127875258306,2.7386127875258306,0,1,1,2.7386127875258306,0" fill="#110e0e" stroke="#1071c6" stroke-width="2" opacity="1"/><path aria-label="binancecoin price: 255.04; date: Jul 24, 2021" role="graphics-symbol" aria-roledescription="point" transform="translate(29.38235294117647,165.10222222222268)" d="M2.7386127875258306,0A2.7386127875258306,2.7386127875258306,0,1,1,-2.7386127875258306,0A2.7386127875258306,2.7386127875258306,0,1,1,2.7386127875258306,0" fill="#110e0e" stroke="#1071c6" stroke-width="2" opacity="1"/><path aria-label="binancecoin price: 255.02; date: Jul 24, 2021" role="graphics-symbol" aria-roledescription="point" transform="translate(39.1764705882353,166.2177777777772)" d="M2.7386127875258306,0A2.7386127875258306,2.7386127875258306,0,1,1,-2.7386127875258306,0A2.7386127875258306,2.7386127875258306,0,1,1,2.7386127875258306,0" fill="#110e0e" stroke="#1071c6" stroke-width="2" opacity="1"/><path aria-label="binancecoin price: 253.81; date: Jul 24, 2021" role="graphics-symbol" aria-roledescription="point" transform="translate(48.970588235294116,233.70888888888874)" d="M2.7386127875258306,0A2.7386127875258306,2.7386127875258306,0,1,1,-2.7386127875258306,0A2.7386127875258306,2.7386127875258306,0,1,1,2.7386127875258306,0" fill="#110e0e" stroke="#1071c6" stroke-width="2" opacity="1"/><path aria-label="binancecoin price: 253.81; date: Jul 24, 2021" role="graphics-symbol" aria-roledescription="point" transform="translate(68.55882352941177,233.70888888888874)" d="M2.7386127875258306,0A2.7386127875258306,2.7386127875258306,0,1,1,-2.7386127875258306,0A2.7386127875258306,2.7386127875258306,0,1,1,2.7386127875258306,0" fill="#110e0e" stroke="#1071c6" stroke-width="2" opacity="1"/><path aria-label="binancecoin price: 254.02; date: Jul 24, 2021" role="graphics-symbol" aria-roledescription="point" transform="translate(78.3529411764706,221.99555555555497)" d="M2.7386127875258306,0A2.7386127875258306,2.7386127875258306,0,1,1,-2.7386127875258306,0A2.7386127875258306,2.7386127875258306,0,1,1,2.7386127875258306,0" fill="#110e0e" stroke="#1071c6" stroke-width="2" opacity="1"/><path aria-label="binancecoin price: 254.13; date: Jul 24, 2021" role="graphics-symbol" aria-roledescription="point" transform="translate(88.1470588235294,215.86000000000024)" d="M2.7386127875258306,0A2.7386127875258306,2.7386127875258306,0,1,1,-2.7386127875258306,0A2.7386127875258306,2.7386127875258306,0,1,1,2.7386127875258306,0" fill="#110e0e" stroke="#1071c6" stroke-width="2" opacity="1"/><path aria-label="binancecoin price: 255.41; date: Jul 24, 2021" role="graphics-symbol" aria-roledescription="point" transform="translate(97.94117647058823,144.4644444444446)" d="M2.7386127875258306,0A2.7386127875258306,2.7386127875258306,0,1,1,-2.7386127875258306,0A2.7386127875258306,2.7386127875258306,0,1,1,2.7386127875258306,0" fill="#110e0e" stroke="#1071c6" stroke-width="2" opacity="1"/><path aria-label="binancecoin price: 257.02; date: Jul 24, 2021" role="graphics-symbol" aria-roledescription="point" transform="translate(107.73529411764706,54.66222222222324)" d="M2.7386127875258306,0A2.7386127875258306,2.7386127875258306,0,1,1,-2.7386127875258306,0A2.7386127875258306,2.7386127875258306,0,1,1,2.7386127875258306,0" fill="#110e0e" stroke="#1071c6" stroke-width="2" opacity="1"/><path aria-label="binancecoin price: 257.13; date: Jul 24, 2021" role="graphics-symbol" aria-roledescription="point" transform="translate(117.52941176470588,48.52666666666693)" d="M2.7386127875258306,0A2.7386127875258306,2.7386127875258306,0,1,1,-2.7386127875258306,0A2.7386127875258306,2.7386127875258306,0,1,1,2.7386127875258306,0" fill="#110e0e" stroke="#1071c6" stroke-width="2" opacity="1"/><path aria-label="binancecoin price: 256.71; date: Jul 24, 2021" role="graphics-symbol" aria-roledescription="point" transform="translate(137.11764705882354,71.95333333333447)" d="M2.7386127875258306,0A2.7386127875258306,2.7386127875258306,0,1,1,-2.7386127875258306,0A2.7386127875258306,2.7386127875258306,0,1,1,2.7386127875258306,0" fill="#110e0e" stroke="#1071c6" stroke-width="2" opacity="1"/><path aria-label="binancecoin price: 256.91; date: Jul 24, 2021" role="graphics-symbol" aria-roledescription="point" transform="translate(146.91176470588235,60.79777777777639)" d="M2.7386127875258306,0A2.7386127875258306,2.7386127875258306,0,1,1,-2.7386127875258306,0A2.7386127875258306,2.7386127875258306,0,1,1,2.7386127875258306,0" fill="#110e0e" stroke="#1071c6" stroke-width="2" opacity="1"/><path aria-label="binancecoin price: 256.91; date: Jul 24, 2021" role="graphics-symbol" aria-roledescription="point" transform="translate(156.7058823529412,60.79777777777639)" d="M2.7386127875258306,0A2.7386127875258306,2.7386127875258306,0,1,1,-2.7386127875258306,0A2.7386127875258306,2.7386127875258306,0,1,1,2.7386127875258306,0" fill="#110e0e" stroke="#1071c6" stroke-width="2" opacity="1"/><path aria-label="binancecoin price: 257.06; date: Jul 24, 2021" role="graphics-symbol" aria-roledescription="point" transform="translate(166.5,52.43111111111097)" d="M2.7386127875258306,0A2.7386127875258306,2.7386127875258306,0,1,1,-2.7386127875258306,0A2.7386127875258306,2.7386127875258306,0,1,1,2.7386127875258306,0" fill="#110e0e" stroke="#1071c6" stroke-width="2" opacity="1"/><path aria-label="binancecoin price: 257.06; date: Jul 24, 2021" role="graphics-symbol" aria-roledescription="point" transform="translate(176.2941176470588,52.43111111111097)" d="M2.7386127875258306,0A2.7386127875258306,2.7386127875258306,0,1,1,-2.7386127875258306,0A2.7386127875258306,2.7386127875258306,0,1,1,2.7386127875258306,0" fill="#110e0e" stroke="#1071c6" stroke-width="2" opacity="1"/><path aria-label="binancecoin price: 257.09; date: Jul 24, 2021" role="graphics-symbol" aria-roledescription="point" transform="translate(186.08823529411765,50.75777777777916)" d="M2.7386127875258306,0A2.7386127875258306,2.7386127875258306,0,1,1,-2.7386127875258306,0A2.7386127875258306,2.7386127875258306,0,1,1,2.7386127875258306,0" fill="#110e0e" stroke="#1071c6" stroke-width="2" opacity="1"/><path aria-label="binancecoin price: 257.21; date: Jul 24, 2021" role="graphics-symbol" aria-roledescription="point" transform="translate(195.88235294117646,44.06444444444559)" d="M2.7386127875258306,0A2.7386127875258306,2.7386127875258306,0,1,1,-2.7386127875258306,0A2.7386127875258306,2.7386127875258306,0,1,1,2.7386127875258306,0" fill="#110e0e" stroke="#1071c6" stroke-width="2" opacity="1"/><path aria-label="binancecoin price: 257.22; date: Jul 25, 2021" role="graphics-symbol" aria-roledescription="point" transform="translate(205.6764705882353,43.50666666666513)" d="M2.7386127875258306,0A2.7386127875258306,2.7386127875258306,0,1,1,-2.7386127875258306,0A2.7386127875258306,2.7386127875258306,0,1,1,2.7386127875258306,0" fill="#110e0e" stroke="#1071c6" stroke-width="2" opacity="1"/><path aria-label="binancecoin price: 257.22; date: Jul 25, 2021" role="graphics-symbol" aria-roledescription="point" transform="translate(215.47058823529412,43.50666666666513)" d="M2.7386127875258306,0A2.7386127875258306,2.7386127875258306,0,1,1,-2.7386127875258306,0A2.7386127875258306,2.7386127875258306,0,1,1,2.7386127875258306,0" fill="#110e0e" stroke="#1071c6" stroke-width="2" opacity="1"/><path aria-label="binancecoin price: 257.2; date: Jul 25, 2021" role="graphics-symbol" aria-roledescription="point" transform="translate(225.26470588235296,44.622222222222845)" d="M2.7386127875258306,0A2.7386127875258306,2.7386127875258306,0,1,1,-2.7386127875258306,0A2.7386127875258306,2.7386127875258306,0,1,1,2.7386127875258306,0" fill="#110e0e" stroke="#1071c6" stroke-width="2" opacity="1"/><path aria-label="binancecoin price: 257.3; date: Jul 25, 2021" role="graphics-symbol" aria-roledescription="point" transform="translate(235.05882352941177,39.044444444443805)" d="M2.7386127875258306,0A2.7386127875258306,2.7386127875258306,0,1,1,-2.7386127875258306,0A2.7386127875258306,2.7386127875258306,0,1,1,2.7386127875258306,0" fill="#110e0e" stroke="#1071c6" stroke-width="2" opacity="1"/><path aria-label="binancecoin price: 257.3; date: Jul 25, 2021" role="graphics-symbol" aria-roledescription="point" transform="translate(244.8529411764706,39.044444444443805)" d="M2.7386127875258306,0A2.7386127875258306,2.7386127875258306,0,1,1,-2.7386127875258306,0A2.7386127875258306,2.7386127875258306,0,1,1,2.7386127875258306,0" fill="#110e0e" stroke="#1071c6" stroke-width="2" opacity="1"/><path aria-label="binancecoin price: 257.34; date: Jul 25, 2021" role="graphics-symbol" aria-roledescription="point" transform="translate(254.6470588235294,36.81333333333474)" d="M2.7386127875258306,0A2.7386127875258306,2.7386127875258306,0,1,1,-2.7386127875258306,0A2.7386127875258306,2.7386127875258306,0,1,1,2.7386127875258306,0" fill="#110e0e" stroke="#1071c6" stroke-width="2" opacity="1"/><path aria-label="binancecoin price: 257.34; date: Jul 25, 2021" role="graphics-symbol" aria-roledescription="point" transform="translate(264.44117647058823,36.81333333333474)" d="M2.7386127875258306,0A2.7386127875258306,2.7386127875258306,0,1,1,-2.7386127875258306,0A2.7386127875258306,2.7386127875258306,0,1,1,2.7386127875258306,0" fill="#110e0e" stroke="#1071c6" stroke-width="2" opacity="1"/><path aria-label="binancecoin price: 257.32; date: Jul 25, 2021" role="graphics-symbol" aria-roledescription="point" transform="translate(274.2352941176471,37.928888888889276)" d="M2.7386127875258306,0A2.7386127875258306,2.7386127875258306,0,1,1,-2.7386127875258306,0A2.7386127875258306,2.7386127875258306,0,1,1,2.7386127875258306,0" fill="#110e0e" stroke="#1071c6" stroke-width="2" opacity="1"/><path aria-label="binancecoin price: 256.51; date: Jul 25, 2021" role="graphics-symbol" aria-roledescription="point" transform="translate(284.02941176470586,83.1088888888894)" d="M2.7386127875258306,0A2.7386127875258306,2.7386127875258306,0,1,1,-2.7386127875258306,0A2.7386127875258306,2.7386127875258306,0,1,1,2.7386127875258306,0" fill="#110e0e" stroke="#1071c6" stroke-width="2" opacity="1"/><path aria-label="binancecoin price: 257.83; date: Jul 25, 2021" role="graphics-symbol" aria-roledescription="point" transform="translate(303.61764705882354,9.48222222222312)" d="M2.7386127875258306,0A2.7386127875258306,2.7386127875258306,0,1,1,-2.7386127875258306,0A2.7386127875258306,2.7386127875258306,0,1,1,2.7386127875258306,0" fill="#110e0e" stroke="#1071c6" stroke-width="2" opacity="1"/><path aria-label="binancecoin price: 257.35; date: Jul 25, 2021" role="graphics-symbol" aria-roledescription="point" transform="translate(313.4117647058824,36.25555555555428)" d="M2.7386127875258306,0A2.7386127875258306,2.7386127875258306,0,1,1,-2.7386127875258306,0A2.7386127875258306,2.7386127875258306,0,1,1,2.7386127875258306,0" fill="#110e0e" stroke="#1071c6" stroke-width="2" opacity="1"/><path aria-label="binancecoin price: 257.35; date: Jul 25, 2021" role="graphics-symbol" aria-roledescription="point" transform="translate(323.20588235294116,36.25555555555428)" d="M2.7386127875258306,0A2.7386127875258306,2.7386127875258306,0,1,1,-2.7386127875258306,0A2.7386127875258306,2.7386127875258306,0,1,1,2.7386127875258306,0" fill="#110e0e" stroke="#1071c6" stroke-width="2" opacity="1"/><path aria-label="binancecoin price: 257.35; date: Jul 25, 2021" role="graphics-symbol" aria-roledescription="point" transform="translate(333,36.25555555555428)" d="M2.7386127875258306,0A2.7386127875258306,2.7386127875258306,0,1,1,-2.7386127875258306,0A2.7386127875258306,2.7386127875258306,0,1,1,2.7386127875258306,0" fill="#110e0e" stroke="#1071c6" stroke-width="2" opacity="1"/></g></g><path class="foreground" aria-hidden="true" d="" display="none"/></g></g></g><defs><clipPath id="clip1"><rect x="0" y="0" width="333" height="251"/></clipPath><clipPath id="clip2"><rect x="0" y="0" width="333" height="251"/></clipPath></defs></svg>